<svg xmlns="http://www.w3.org/2000/svg" width="1024" height="1024" viewBox="0 0 1024 1024">
  <defs>
    <linearGradient id="travel" x1="260" y1="270" x2="760" y2="720" gradientUnits="userSpaceOnUse">
      <stop stop-color="#55EDAC"/>
      <stop offset=".52" stop-color="#27D3D2"/>
      <stop offset="1" stop-color="#168BFA"/>
    </linearGradient>
  </defs>

  <circle cx="512" cy="418" r="164" fill="#159AF8"/>
  <path d="M405 316l46-30 48 3 22 25-12 29-39 11-16 38-41 2-21-30 13-48zm115 40 52-27 74 16 44 47 19 62-27 27-35-11-18 30-42 4-19 53-35 24-29-13-8-51-36-35-2-40 30-30 36-13 0-43zm-101 88 37 23 17 45-17 66-29 51-22-40 5-46-24-38 8-37 25-24zm236 91 29 14 11 33-29 26-38-11-7-31 34-31z" fill="#0A2340"/>

  <path d="M276 385c45-132 196-202 333-154l-33-43 55 3 55 55-55 55-56 3 34-44c-102-32-212 19-250 115l-83 10z" fill="#55EDAC"/>
  <path d="M750 481c-30 132-159 223-295 205-85-10-154-55-199-121l67-46c34 48 85 80 144 87 94 13 185-45 214-135l69 10z" fill="url(#travel)"/>

  <path d="M452 365c85-7 165-39 229-91l-55-38 21-17 81 19 49-38c19-14 35-11 37-1 3 15-13 30-28 41l-40 30-1 87-20 14-23-67c-71 50-153 79-239 85l-11-24z" fill="#FFF"/>

  <circle cx="314" cy="440" r="88" fill="#55EDAC" stroke="#0A2340" stroke-width="14"/>
  <text x="314" y="479" fill="#0A2340" font-family="Arial, Helvetica, sans-serif" font-size="116" font-weight="700" text-anchor="middle">$</text>
  <circle cx="723" cy="465" r="82" fill="#1FAAF5" stroke="#0A2340" stroke-width="14"/>
  <text x="723" y="501" fill="#0A2340" font-family="Arial, Helvetica, sans-serif" font-size="103" font-weight="700" text-anchor="middle">€</text>

  <text x="512" y="812" fill="#FFF" font-family="Arial, Helvetica, sans-serif" font-size="154" font-weight="700" letter-spacing="-7" text-anchor="middle">travel<tspan fill="#168BFA">f</tspan><tspan fill="#55EDAC">x</tspan></text>
</svg>
